<?xml version="1.0" standalone="no"?>
<!DOCTYPE svg PUBLIC "-//W3C//DTD SVG 20010904//EN"
 "http://www.w3.org/TR/2001/REC-SVG-20010904/DTD/svg10.dtd">
<svg version="1.0" xmlns="http://www.w3.org/2000/svg"
 width="480.000000pt" height="480.000000pt" viewBox="0 0 480.000000 480.000000"
 preserveAspectRatio="xMidYMid meet">
<metadata>
Created by potrace 1.11, written by Peter Selinger 2001-2013
</metadata>
<g transform="translate(0.000000,480.000000) scale(0.100000,-0.100000)"
fill="#000000" stroke="none">
<path d="M3154 3275 c-25 -15 -47 -38 -57 -62 -27 -59 -38 -263 -23 -403 7
-64 12 -124 20 -206 2 -23 6 -46 10 -52 3 -6 2 -14 -4 -17 -7 -4 -7 -11 -2
-18 5 -7 10 -30 11 -52 4 -64 11 -157 15 -200 2 -22 6 -85 10 -140 13 -185 27
-226 96 -271 94 -62 222 -26 276 78 15 30 27 161 16 181 -8 15 -9 108 -1 112
4 3 18 -1 30 -8 35 -18 180 -108 214 -133 68 -49 135 -56 170 -18 52 57 26
120 -80 194 -54 38 -62 43 -142 90 -29 16 -53 34 -53 38 0 4 10 14 21 22 144
100 254 228 243 284 -13 67 -40 94 -107 103 -27 4 -95 -28 -129 -60 -7 -6 -35
-30 -63 -52 -27 -22 -57 -48 -67 -57 -9 -9 -28 -24 -41 -33 l-24 -15 -11 57
c-7 32 -14 85 -18 118 -11 109 -15 150 -16 165 0 25 -57 212 -78 257 -28 60
-67 101 -109 113 -51 14 -61 13 -107 -15z"/>
<path d="M4195 3282 c-4 -4 -10 -7 -13 -7 -39 -3 -62 -19 -81 -61 -23 -49 -21
-99 6 -141 19 -29 73 -53 109 -48 16 2 35 4 42 4 16 1 71 57 73 74 10 85 -7
137 -50 157 -41 19 -79 29 -86 22z"/>
<path d="M1650 3198 c-19 -5 -46 -19 -59 -31 -32 -29 -82 -108 -75 -118 3 -5
2 -9 -3 -9 -4 0 -14 -12 -21 -27 -7 -16 -38 -55 -68 -88 -81 -87 -223 -284
-253 -350 -5 -11 -23 -44 -40 -73 -17 -28 -28 -52 -26 -52 3 0 -5 -17 -18 -37
-13 -21 -30 -55 -38 -75 -7 -21 -16 -38 -19 -38 -12 0 -36 32 -176 240 -202
301 -329 472 -370 499 -35 24 -70 28 -135 16 -94 -18 -123 -93 -120 -305 2
-113 3 -135 14 -215 3 -22 8 -76 12 -120 3 -44 8 -98 11 -120 2 -22 6 -62 9
-90 7 -72 16 -156 20 -185 2 -14 7 -52 10 -85 22 -221 36 -274 82 -321 100
-104 239 -82 297 45 26 58 28 92 12 271 -4 41 -9 100 -11 130 -2 30 -6 66 -9
80 -12 61 -16 89 -21 150 -3 36 -8 77 -11 93 -9 56 14 34 99 -94 31 -48 71
-102 87 -120 16 -19 30 -37 30 -40 0 -14 74 -62 121 -79 57 -21 107 -17 131
11 9 11 24 43 33 72 9 28 19 59 21 67 3 8 5 16 5 17 0 1 30 60 66 129 67 132
146 258 155 249 3 -3 1 -29 -5 -58 -14 -70 -13 -417 0 -492 7 -33 14 -76 18
-95 14 -76 39 -147 64 -182 86 -124 284 -96 331 46 17 53 18 66 8 111 -26 113
-37 184 -43 275 -10 150 -10 160 -5 160 3 0 5 19 5 43 1 23 4 67 8 97 4 30 10
69 12 85 2 17 13 75 25 130 12 55 24 136 26 180 3 44 6 96 8 115 2 19 0 40 -4
45 -3 6 -13 30 -20 54 -22 70 -96 108 -170 89z"/>
<path d="M4212 2913 c-43 -8 -97 -74 -126 -154 -26 -73 -27 -78 -22 -244 9
-278 12 -297 50 -348 24 -33 97 -79 129 -81 12 -1 45 4 72 12 57 16 120 75
134 126 6 23 8 281 1 281 0 0 -3 38 -5 85 -6 101 -8 114 -29 164 -46 110 -127
173 -204 159z"/>
<path d="M2744 2818 c-17 -4 -39 -19 -49 -32 l-18 -24 -51 20 c-50 20 -199 34
-221 20 -5 -4 -18 -8 -27 -9 -53 -8 -184 -112 -225 -178 -69 -111 -98 -193
-109 -315 -14 -153 6 -228 85 -310 104 -106 219 -132 343 -77 48 22 138 98
138 118 0 4 6 9 14 12 10 4 22 -8 36 -38 23 -47 71 -84 120 -91 75 -12 163 44
176 113 6 30 10 278 4 278 -1 0 -3 45 -5 100 -2 55 -10 128 -19 163 -8 34 -12
62 -10 62 3 0 0 8 -5 18 -5 9 -12 35 -15 56 -13 82 -87 134 -162 114z m-155
-375 c-13 -26 -23 -50 -24 -53 -1 -3 -9 -23 -20 -45 -10 -22 -19 -46 -21 -53
-1 -8 -10 -22 -18 -31 -9 -10 -16 -21 -16 -25 0 -4 -12 -23 -27 -43 -24 -31
-28 -33 -34 -17 -13 38 1 138 27 192 14 28 29 52 32 52 4 0 18 10 32 23 50 45
85 68 88 58 2 -5 -7 -31 -19 -58z"/>
<path d="M4585 1761 c-36 -10 -60 -34 -99 -98 -21 -34 -51 -76 -67 -94 -16
-18 -29 -38 -29 -45 0 -29 -129 -125 -250 -187 -120 -62 -129 -65 -212 -69
-73 -4 -91 -8 -120 -29 -107 -82 -206 -107 -463 -119 -178 -8 -267 -19 -302
-38 -10 -6 -140 -12 -288 -15 -149 -2 -281 -7 -295 -11 -50 -15 -127 -18 -150
-6 -41 22 -131 31 -395 41 -185 6 -271 13 -297 24 -28 11 -89 14 -265 15 -125
0 -239 3 -253 6 -14 3 -79 10 -145 15 -66 5 -136 14 -156 19 -20 6 -46 10 -57
10 -12 0 -40 11 -64 23 -24 13 -56 31 -73 40 -74 41 -149 67 -190 67 -30 0
-55 8 -80 24 -44 30 -127 30 -168 0 -75 -54 -67 -174 13 -216 14 -7 40 -23 59
-36 26 -17 48 -22 94 -22 52 0 74 -7 181 -59 171 -83 144 -77 466 -111 47 -5
146 -9 220 -9 74 -1 151 -6 170 -11 24 -7 51 -7 86 1 40 9 56 9 75 -2 25 -14
130 -23 464 -38 145 -6 210 -13 237 -25 47 -20 193 -21 303 -1 54 10 153 15
307 15 172 0 237 3 265 14 49 19 126 25 302 27 98 1 154 6 177 15 18 8 49 14
67 14 34 0 69 11 154 51 24 10 48 19 54 19 7 0 27 11 45 25 22 17 45 25 72 25
60 0 130 25 284 101 142 71 193 105 277 186 25 24 48 43 52 43 4 0 14 19 24
43 9 23 27 53 40 67 33 34 82 129 90 173 16 84 -74 162 -160 138z"/>
</g>
</svg>
