<?xml version="1.0" standalone="no"?>
<!DOCTYPE svg PUBLIC "-//W3C//DTD SVG 20010904//EN"
 "http://www.w3.org/TR/2001/REC-SVG-20010904/DTD/svg10.dtd">
<svg version="1.0" xmlns="http://www.w3.org/2000/svg"
 width="561.000000pt" height="561.000000pt" viewBox="0 0 561.000000 561.000000"
 preserveAspectRatio="xMidYMid meet">
<metadata>
Created by potrace 1.11, written by Peter Selinger 2001-2013
</metadata>
<g transform="translate(0.000000,561.000000) scale(0.100000,-0.100000)"
fill="#000000" stroke="none">
<path d="M2719 5472 c-22 -3 -32 -15 -57 -70 -44 -96 -61 -160 -77 -287 -3
-27 -9 -53 -13 -57 -4 -4 -43 -10 -88 -13 l-80 -7 -13 44 c-20 67 -87 189
-139 254 -45 54 -51 59 -88 58 -21 0 -65 -8 -96 -17 -49 -15 -58 -21 -67 -50
-20 -65 -29 -216 -16 -297 2 -14 7 -43 10 -65 l6 -40 -82 -33 c-45 -18 -82
-32 -84 -30 -1 2 -16 25 -34 51 -43 64 -147 167 -212 211 l-53 35 -65 -35
c-108 -57 -105 -52 -97 -137 8 -90 37 -198 76 -280 16 -34 28 -62 27 -62 -1
-1 -30 -23 -64 -49 l-62 -48 -59 49 c-73 61 -167 114 -250 142 l-64 22 -36
-33 c-21 -18 -50 -48 -66 -66 -29 -33 -29 -35 -17 -80 17 -64 73 -172 123
-238 24 -31 49 -65 57 -75 12 -17 8 -26 -39 -88 l-53 -70 -48 24 c-72 37 -215
75 -295 80 l-72 4 -25 -37 c-13 -21 -34 -57 -46 -80 l-22 -43 26 -44 c37 -63
125 -156 205 -215 l70 -52 -16 -36 c-9 -20 -23 -54 -31 -76 l-16 -38 -51 8
c-28 5 -109 9 -181 8 -171 -1 -198 -11 -219 -86 -34 -121 -34 -120 29 -172 72
-58 172 -115 251 -141 49 -17 60 -25 58 -41 -2 -10 -6 -46 -9 -79 -4 -33 -10
-63 -13 -66 -4 -4 -38 -10 -76 -14 -84 -8 -219 -46 -287 -80 -54 -28 -51 -20
-51 -148 0 -32 5 -64 12 -72 6 -8 49 -28 93 -46 91 -35 83 -32 152 -44 28 -5
53 -10 58 -11 4 -1 24 -2 45 -3 52 -2 59 -9 66 -71 4 -30 9 -67 11 -81 4 -23
-1 -28 -53 -48 -111 -44 -180 -84 -264 -154 -43 -35 -47 -42 -43 -70 11 -60
38 -147 49 -156 40 -32 357 -37 407 -6 4 3 11 -1 16 -8 14 -18 67 -147 62
-150 -2 -2 -24 -17 -49 -34 -97 -66 -240 -226 -240 -269 0 -11 19 -51 43 -89
l43 -70 69 2 c75 2 210 37 296 77 l53 24 52 -70 53 -70 -21 -22 c-69 -72 -166
-243 -182 -322 -6 -27 -1 -37 55 -93 58 -60 63 -62 98 -56 57 10 210 90 279
145 65 52 75 54 114 18 7 -7 30 -26 51 -42 21 -15 36 -33 33 -40 -66 -149 -96
-259 -96 -351 l0 -55 53 -33 c105 -66 99 -65 163 -23 69 46 146 122 204 201
24 33 45 61 46 63 1 2 147 -57 150 -62 1 0 -4 -32 -11 -71 -14 -82 -12 -240 5
-307 12 -46 13 -47 74 -67 123 -39 124 -39 189 47 54 70 98 150 127 230 21 58
23 60 54 56 17 -3 56 -8 86 -12 52 -7 55 -9 57 -37 13 -160 86 -379 127 -383
51 -5 146 -3 163 2 41 13 107 197 121 338 l7 72 35 7 c19 4 56 10 82 12 47 5
47 5 59 -32 32 -99 102 -218 174 -300 25 -27 33 -30 64 -25 46 7 134 34 144
44 13 11 26 76 33 156 6 62 -8 221 -22 258 -3 8 20 23 70 44 42 18 80 32 85
32 5 0 22 -20 38 -45 58 -89 230 -245 270 -245 15 0 90 40 137 73 28 20 29 21
22 97 -7 87 -42 213 -79 286 l-25 48 66 52 66 51 61 -47 c33 -26 83 -61 110
-77 55 -32 175 -83 197 -83 15 0 100 79 124 116 16 23 15 28 -6 87 -30 84 -79
170 -138 242 l-49 61 31 40 c17 22 41 52 53 67 l22 28 53 -24 c115 -52 250
-83 345 -78 16 1 33 19 63 70 22 38 40 78 40 89 0 24 -70 121 -131 181 -34 34
-96 84 -156 126 -2 1 11 36 29 79 29 73 32 77 57 71 87 -22 235 -24 333 -6
l67 13 20 62 c38 119 38 119 -18 167 -70 60 -161 114 -248 147 -63 23 -73 30
-69 47 3 11 8 47 11 80 4 33 8 61 9 61 0 1 32 5 70 9 97 9 202 38 280 76 73
36 69 27 66 154 -1 49 -5 63 -23 77 -50 40 -229 93 -342 102 -25 2 -47 5 -49
7 -2 2 -7 29 -10 59 -4 30 -8 66 -11 80 -4 23 1 27 58 48 83 30 184 87 251
142 55 45 55 45 49 90 -3 25 -14 67 -23 95 -16 46 -19 50 -66 62 -81 22 -268
20 -360 -3 -17 -4 -24 0 -32 23 -5 15 -19 51 -30 79 l-21 52 57 38 c72 50 164
142 209 210 l36 54 -27 53 c-49 96 -65 110 -125 109 -73 -2 -207 -35 -287 -72
-36 -16 -70 -27 -75 -24 -9 5 -76 94 -92 120 -4 6 5 24 19 40 100 113 199 317
172 353 -24 33 -74 83 -99 101 -22 16 -32 18 -64 9 -87 -24 -236 -110 -305
-175 l-25 -23 -65 50 c-71 55 -77 63 -61 83 15 17 69 165 77 208 10 57 15 92
18 136 4 40 2 44 -38 71 -22 16 -60 38 -83 50 l-42 21 -45 -31 c-70 -47 -154
-127 -208 -199 -27 -36 -53 -65 -56 -65 -4 0 -40 13 -81 30 l-73 29 8 50 c12
76 10 295 -4 342 -11 37 -16 42 -64 57 -29 9 -71 19 -94 23 -37 6 -42 3 -74
-32 -69 -79 -170 -263 -170 -311 0 -13 -10 -15 -67 -9 -84 8 -101 11 -108 18
-3 3 -8 31 -10 62 -6 83 -40 205 -76 280 -27 55 -37 66 -58 67 -65 4 -118 4
-142 1z m266 -556 c33 -3 71 -8 85 -11 14 -2 42 -7 62 -10 21 -2 59 -10 85
-16 27 -6 59 -13 73 -15 91 -18 305 -99 443 -168 136 -69 307 -178 367 -235
53 -50 51 -73 -8 -137 -26 -28 -82 -90 -126 -138 -61 -67 -84 -86 -105 -86
-16 0 -63 27 -126 71 -183 129 -444 238 -655 273 -176 30 -490 28 -600 -4 -17
-5 -33 -9 -35 -9 -17 1 -82 -16 -165 -43 -162 -51 -350 -148 -485 -250 -68
-51 -92 -50 -148 10 -102 108 -189 208 -199 229 -17 36 -1 66 57 108 31 22 61
45 68 50 60 50 270 167 399 223 84 36 259 95 314 106 10 3 42 9 69 16 28 6 68
13 90 16 22 3 46 7 53 9 7 3 61 8 120 11 59 4 108 8 110 9 4 4 197 -3 257 -9z
m99 -617 c21 -6 46 -12 55 -14 54 -11 221 -74 306 -115 161 -78 299 -178 443
-321 102 -100 100 -107 -43 -179 -60 -30 -189 -93 -285 -139 -96 -47 -218
-105 -270 -131 -156 -77 -197 -84 -221 -39 -12 24 -16 54 -24 184 -5 96 -7
120 -19 285 -19 244 -29 404 -28 430 1 14 10 31 19 38 20 15 19 15 67 1z
m-515 -13 c7 -8 13 -23 13 -33 1 -17 -11 -191 -17 -263 -2 -19 -7 -86 -10
-149 -4 -63 -8 -121 -10 -130 -1 -9 -6 -72 -10 -140 -4 -68 -9 -131 -10 -140
-2 -9 -4 -26 -4 -39 -1 -33 -45 -73 -73 -68 -24 4 -125 52 -559 264 -214 104
-267 134 -272 152 -5 20 9 38 81 109 112 111 147 140 262 216 122 80 242 137
400 189 141 46 191 54 209 32z m-1127 -164 c114 -116 146 -161 131 -185 -3 -7
-34 -46 -68 -87 -93 -112 -160 -217 -219 -342 -47 -99 -99 -243 -111 -310 -3
-13 -7 -34 -10 -48 -32 -161 -37 -416 -11 -570 3 -14 7 -42 10 -62 3 -21 7
-41 8 -45 6 -20 -13 -73 -29 -81 -30 -16 -332 -102 -357 -102 -38 0 -55 38
-73 155 -2 17 -9 55 -14 85 -14 71 -19 393 -9 490 18 165 43 288 90 435 33
103 41 125 91 233 16 35 29 65 29 67 0 12 118 206 169 277 78 110 176 216 204
220 34 6 43 -1 169 -130z m2932 85 c336 -365 531 -877 529 -1387 -1 -91 -11
-262 -18 -290 0 -3 -4 -27 -8 -55 -21 -139 -40 -185 -80 -185 -10 0 -92 21
-181 46 -192 55 -212 69 -201 143 23 150 29 234 29 371 0 137 -4 176 -29 310
-44 237 -174 500 -344 697 -89 104 -90 101 76 267 155 156 158 157 227 83z
m-150 -909 c56 -199 71 -300 70 -488 0 -154 -11 -235 -51 -402 -23 -96 -48
-148 -71 -148 -17 1 -66 33 -537 354 -229 156 -235 160 -235 201 0 45 -34 19
470 360 80 54 172 117 206 141 98 68 124 64 148 -18z m-2733 19 c35 -24 136
-92 224 -152 88 -60 216 -147 285 -193 153 -104 180 -128 180 -162 0 -36 -12
-49 -120 -122 -52 -35 -151 -103 -220 -150 -338 -230 -412 -278 -429 -278 -11
0 -26 7 -34 14 -12 12 -44 131 -72 263 -19 85 -25 334 -13 449 9 81 44 250 63
304 30 85 46 88 136 27z m1408 9 c181 -42 340 -188 392 -361 45 -148 19 -318
-67 -446 -125 -187 -351 -273 -569 -219 -138 35 -274 147 -338 280 -42 86 -47
107 -52 211 -8 149 44 278 156 392 72 72 158 121 254 142 49 12 177 12 224 1z
m351 -1072 c143 -70 514 -250 608 -296 87 -42 117 -70 102 -97 -11 -21 -163
-171 -215 -212 -173 -136 -371 -235 -595 -298 -158 -44 -159 -42 -146 164 4
55 9 114 11 130 2 17 7 77 10 135 4 58 9 121 11 140 1 19 6 85 10 145 4 61 8
117 10 125 1 8 3 27 3 41 1 34 36 69 69 69 15 0 70 -21 122 -46z m-740 16 c11
-11 20 -23 21 -27 0 -5 2 -19 4 -33 2 -14 6 -74 10 -135 3 -60 8 -126 10 -145
4 -34 11 -134 20 -270 2 -36 7 -99 11 -140 7 -74 8 -108 5 -163 -2 -44 -32
-48 -136 -20 -289 79 -524 213 -733 419 -75 72 -93 96 -90 115 2 20 33 39 188
116 437 218 617 303 643 303 15 0 36 -9 47 -20z m-1278 -57 c8 -10 37 -65 65
-123 45 -95 141 -248 203 -325 78 -96 254 -257 354 -323 296 -198 586 -288
936 -290 544 -3 1055 268 1368 726 31 46 86 140 122 209 36 70 73 131 82 137
13 8 59 -4 195 -50 219 -74 221 -76 178 -180 -175 -418 -510 -796 -904 -1019
-242 -137 -537 -235 -783 -261 -35 -3 -66 -8 -70 -11 -11 -6 -326 -4 -388 2
-364 40 -673 150 -965 343 -147 98 -356 286 -467 422 -114 139 -243 352 -308
509 -34 84 -37 103 -14 122 20 17 330 128 360 128 11 1 28 -7 36 -16z"/>
<path d="M2590 4859 c-128 -14 -125 -13 -125 -45 0 -29 0 -29 53 -26 38 3 52
0 53 -10 0 -7 2 -20 3 -28 5 -21 18 -140 25 -218 1 -8 11 -10 33 -7 31 6 51
22 43 35 -2 4 -7 35 -11 71 -3 35 -10 86 -14 112 -9 58 -13 55 96 66 6 1 9 14
6 31 -4 28 -7 30 -46 29 -22 -1 -75 -5 -116 -10z"/>
<path d="M2859 4704 c-41 -86 -75 -159 -77 -163 -1 -4 14 -7 33 -8 30 -1 38 4
51 29 15 30 16 30 82 24 66 -6 82 -16 82 -48 0 -19 40 -34 64 -25 11 4 6 33
-25 144 -21 76 -42 152 -47 168 -7 26 -13 30 -48 33 l-40 3 -75 -157z m136
-28 l8 -38 -43 6 c-24 3 -44 7 -46 8 -1 2 10 29 24 62 l27 59 11 -30 c7 -16
16 -46 19 -67z"/>
<path d="M3267 4803 c-15 -26 -88 -296 -83 -308 3 -8 17 -15 31 -15 14 0 28
-1 31 -2 4 -2 12 16 19 40 22 74 21 72 53 61 28 -9 30 -15 37 -75 6 -62 9 -67
38 -79 29 -12 32 -12 35 5 2 10 -1 41 -6 68 -9 49 -8 51 24 81 36 34 49 75 39
120 -9 41 -29 55 -119 85 -85 28 -93 30 -99 19z m141 -105 c17 -15 15 -35 -8
-58 -16 -16 -24 -18 -52 -8 -46 15 -49 19 -38 60 10 36 11 36 48 26 20 -6 43
-15 50 -20z"/>
<path d="M2233 4789 c-56 -10 -77 -23 -108 -63 -67 -89 -23 -227 85 -261 84
-27 186 28 210 115 14 49 12 69 -9 116 -31 68 -104 106 -178 93z m98 -88 c16
-16 30 -37 30 -45 1 -9 2 -22 3 -28 7 -46 -52 -108 -103 -108 -60 0 -115 63
-104 120 15 86 114 121 174 61z"/>
<path d="M3595 4668 c3 -18 8 -40 10 -48 2 -8 6 -31 9 -50 3 -19 8 -45 10 -56
3 -12 -11 -51 -31 -90 l-36 -68 23 -18 c13 -10 28 -17 34 -15 6 2 27 33 45 69
l35 66 98 43 c86 39 95 46 80 57 -40 31 -48 31 -111 2 -35 -17 -64 -30 -66
-30 -4 0 -7 13 -20 85 -2 11 -4 28 -4 37 -1 15 -51 48 -73 48 -4 0 -6 -15 -3
-32z"/>
<path d="M1820 4621 c-30 -15 -69 -36 -87 -47 l-31 -18 33 -61 c18 -33 43 -76
54 -95 11 -19 27 -48 35 -65 7 -16 20 -38 28 -49 14 -17 16 -17 46 -2 18 9 32
20 32 24 0 4 -11 25 -25 47 -31 51 -31 59 1 74 23 10 30 8 67 -21 23 -17 47
-35 52 -39 6 -4 25 1 44 10 l34 18 -56 42 c-52 40 -55 44 -55 86 0 48 -21 84
-64 109 -35 21 -44 20 -108 -13z m90 -67 c15 -38 13 -42 -22 -64 -45 -27 -52
-25 -71 15 l-17 35 38 19 c49 27 61 26 72 -5z"/>
<path d="M2690 3279 c-71 -14 -181 -73 -236 -128 -191 -189 -189 -499 5 -684
216 -206 562 -169 725 76 118 179 102 429 -38 586 -38 43 -136 109 -193 131
-63 23 -193 33 -263 19z m166 -93 c8 -3 14 -20 14 -39 0 -31 4 -36 44 -51 64
-24 130 -87 163 -154 24 -48 28 -69 27 -137 0 -67 -5 -89 -27 -132 -125 -242
-445 -238 -568 6 -36 70 -34 186 4 263 31 63 100 131 153 150 19 7 35 18 35
25 1 12 5 41 8 62 2 16 111 21 147 7z"/>
<path d="M1150 1899 c-74 -43 -139 -80 -145 -82 -6 -2 -3 -18 7 -40 l17 -36
123 72 c181 106 173 99 151 135 l-18 30 -135 -79z"/>
<path d="M4560 1884 c-19 -36 -37 -67 -40 -69 -3 -2 -57 25 -120 60 -63 36
-118 65 -122 65 -4 0 -14 -12 -22 -27 l-14 -27 72 -41 c39 -23 106 -60 148
-83 l76 -43 57 103 c51 95 55 104 39 115 -30 22 -39 15 -74 -53z"/>
<path d="M1220 1765 c-74 -51 -135 -97 -135 -101 0 -5 8 -20 17 -33 l17 -24
82 58 c45 32 80 51 77 44 -3 -8 -20 -59 -38 -115 -33 -101 -33 -101 -14 -127
10 -15 22 -27 26 -27 4 0 56 42 115 93 59 50 118 100 130 111 l21 18 -26 23
-27 23 -66 -59 c-37 -32 -69 -59 -72 -59 -4 0 11 49 31 109 l38 109 -21 24
-20 25 -135 -92z"/>
<path d="M4125 1730 l-27 -28 87 -144 c48 -78 90 -146 94 -151 4 -4 17 4 30
17 22 23 22 25 6 50 -17 26 -17 27 25 81 46 59 47 60 83 46 20 -8 26 -5 41 19
9 16 13 31 9 33 -7 4 -184 63 -279 92 -40 13 -43 12 -69 -15z m183 -91 c10 -3
5 -16 -16 -42 l-30 -37 -31 55 c-17 30 -31 57 -31 59 0 2 21 -4 48 -14 26 -9
53 -19 60 -21z"/>
<path d="M1527 1591 c-16 -17 -15 -20 22 -58 l39 -39 -30 -35 c-16 -19 -49
-55 -71 -80 -90 -99 -85 -86 -52 -116 l28 -27 19 25 c11 13 29 35 41 49 12 14
44 51 70 83 l49 57 38 -30 c21 -16 41 -30 45 -30 8 0 34 31 35 41 0 3 -26 27
-57 52 -32 25 -78 64 -102 87 -25 22 -47 40 -50 39 -3 0 -14 -8 -24 -18z"/>
<path d="M3981 1576 l-24 -25 54 -56 c60 -63 80 -91 58 -83 -8 3 -58 18 -112
34 l-98 28 -20 -21 -21 -21 97 -131 c53 -72 102 -131 109 -131 7 0 21 9 30 19
17 19 16 22 -38 95 -31 42 -56 78 -56 80 0 2 48 -12 108 -31 92 -29 110 -32
130 -21 50 27 46 37 -77 166 l-117 122 -23 -24z"/>
<path d="M1733 1251 c-51 -75 -93 -140 -93 -143 0 -8 197 -128 209 -128 4 0
13 11 19 25 11 24 8 26 -63 68 l-74 43 21 32 c11 18 24 32 28 32 4 0 28 -11
51 -25 54 -30 53 -30 67 0 11 23 8 26 -38 52 -50 28 -50 29 -21 72 7 11 22 6
76 -23 69 -37 78 -38 95 -6 9 17 2 24 -57 59 -38 22 -81 49 -98 60 l-30 19
-92 -137z"/>
<path d="M3616 1300 c-156 -79 -97 -315 79 -313 94 1 159 67 162 165 1 49 -3
63 -28 97 -49 69 -138 90 -213 51z m132 -56 c57 -40 63 -120 12 -166 -85 -77
-207 19 -159 125 23 51 102 73 147 41z"/>
<path d="M2074 1193 c-9 -21 -36 -85 -61 -143 -25 -58 -47 -110 -50 -116 -2
-6 4 -14 14 -17 10 -2 25 -8 34 -11 12 -5 22 8 43 58 27 64 28 65 54 53 15 -6
29 -12 31 -14 2 -1 5 -35 7 -74 3 -40 6 -74 8 -76 2 -2 18 -8 35 -13 l32 -9
-5 79 c-4 59 -2 80 7 80 18 1 51 32 63 60 21 52 5 102 -39 123 -49 23 -136 57
-148 57 -5 0 -17 -17 -25 -37z m116 -61 c39 -19 48 -42 25 -65 -14 -14 -20
-14 -60 0 -48 16 -50 19 -35 57 11 30 22 31 70 8z"/>
<path d="M3358 1189 l-26 -10 54 -156 c30 -86 56 -158 58 -160 3 -3 49 14 64
23 8 5 -104 314 -113 313 -5 0 -22 -5 -37 -10z"/>
<path d="M3219 1146 c-2 -2 -22 -7 -44 -10 -22 -4 -53 -10 -70 -15 -16 -5 -52
-12 -78 -16 -38 -5 -47 -10 -43 -22 3 -8 6 -21 6 -29 0 -11 12 -12 55 -8 30 4
55 2 56 -2 0 -5 2 -16 4 -24 4 -19 10 -59 24 -142 15 -93 17 -95 52 -90 16 2
31 7 33 11 3 3 -4 49 -15 101 -11 52 -21 104 -23 117 -3 12 -7 27 -11 32 -7
13 20 27 69 36 32 7 37 11 32 29 -3 11 -6 24 -6 29 0 7 -33 10 -41 3z"/>
<path d="M2400 1120 c-6 -10 -23 -78 -40 -151 -16 -73 -32 -140 -35 -151 -5
-13 -1 -18 12 -18 10 0 28 -3 39 -6 20 -5 23 1 39 91 10 52 20 94 22 91 3 -3
26 -51 52 -108 46 -102 47 -103 84 -106 25 -2 37 1 38 10 0 7 2 20 4 28 1 8 6
47 9 85 4 39 9 84 12 100 2 17 6 49 8 73 4 42 4 42 -30 42 -28 0 -34 -4 -35
-22 0 -13 -2 -32 -4 -43 -3 -11 -6 -42 -9 -68 -3 -27 -7 -51 -9 -53 -2 -3 -24
42 -48 99 -36 86 -48 106 -71 115 -24 9 -30 7 -38 -8z"/>
<path d="M2801 1091 c-9 -7 -115 -320 -110 -325 2 -2 16 -6 31 -10 24 -6 29
-2 41 25 12 31 15 32 80 36 65 3 67 2 82 -27 12 -23 22 -30 40 -27 13 1 27 6
31 10 5 5 -108 298 -122 315 -5 7 -64 8 -73 3z m67 -158 l21 -53 -48 0 -48 0
21 60 c11 32 23 56 27 52 3 -4 15 -31 27 -59z"/>
</g>
</svg>
